<?xml version="1.0" encoding="UTF-8" standalone="no"?>
<svg
   xmlns:dc="http://purl.org/dc/elements/1.1/"
   xmlns:cc="http://creativecommons.org/ns#"
   xmlns:rdf="http://www.w3.org/1999/02/22-rdf-syntax-ns#"
   xmlns:svg="http://www.w3.org/2000/svg"
   xmlns="http://www.w3.org/2000/svg"
   xmlns:sodipodi="http://sodipodi.sourceforge.net/DTD/sodipodi-0.dtd"
   xmlns:inkscape="http://www.inkscape.org/namespaces/inkscape"
   version="1.1"
   id="Layer_1"
   x="0px"
   y="0px"
   viewBox="0 0 3439.1754 1994.9418"
   xml:space="preserve"
   sodipodi:docname="RMA.svg"
   inkscape:version="1.0.2 (e86c8708, 2021-01-15)"
   width="3439.1755"
   height="1994.9418"><metadata
   id="metadata113"><rdf:RDF><cc:Work
       rdf:about=""><dc:format>image/svg+xml</dc:format><dc:type
         rdf:resource="http://purl.org/dc/dcmitype/StillImage" /></cc:Work></rdf:RDF></metadata><defs
   id="defs111" /><sodipodi:namedview
   pagecolor="#ffffff"
   bordercolor="#666666"
   borderopacity="1"
   objecttolerance="10"
   gridtolerance="10"
   guidetolerance="10"
   inkscape:pageopacity="0"
   inkscape:pageshadow="2"
   inkscape:window-width="1378"
   inkscape:window-height="814"
   id="namedview109"
   showgrid="false"
   inkscape:zoom="0.1544754"
   inkscape:cx="2897.7299"
   inkscape:cy="879.61704"
   inkscape:window-x="0"
   inkscape:window-y="25"
   inkscape:window-maximized="0"
   inkscape:current-layer="Layer_1" />
<style
   type="text/css"
   id="style10">
	.st0{fill:#000066;}
	.st1{fill:#FFFFFF;stroke:#7A8267;stroke-width:0.975;stroke-linecap:round;stroke-linejoin:round;stroke-miterlimit:10;}
	.st2{fill:none;stroke:#FFF100;stroke-width:9.75;stroke-miterlimit:10;}
	.st3{fill:none;stroke:#EC1C24;stroke-width:9.75;stroke-miterlimit:10;}
	.st4{stroke:#000000;stroke-width:9.75;stroke-miterlimit:10;}
	.st5{fill:none;}
	.st6{font-family:'SegoeUI-Semilight';}
	.st7{font-size:21.1928px;}
	.st8{fill:#FFFFFF;}
</style>
<g
   id="g40"
   transform="matrix(6.8069976,0,0,6.8069976,-252.1312,-127.48008)">
	<path
   class="st0"
   d="M 178.95,236.8 H 141.39 L 93.58,170.83 c -1.76,0.1 -3.34,0.18 -4.73,0.23 -1.4,0.05 -2.67,0.08 -3.8,0.08 -0.93,0 -1.92,-0.02 -2.95,-0.08 -1.04,-0.05 -2.12,-0.13 -3.26,-0.23 v 40.98 c 0,4.97 0.34,8.88 1.01,11.72 0.67,2.85 1.65,4.97 2.95,6.36 1.29,1.4 2.84,2.25 4.66,2.56 1.81,0.31 3.85,0.47 6.13,0.47 h 5.59 v 3.88 H 38.63 v -3.88 h 5.43 c 5.79,0 10.04,-1.91 12.73,-5.75 1.45,-2.27 2.17,-7.4 2.17,-15.37 v -91.1 c 0,-8.69 -0.99,-14.18 -2.95,-16.45 -2.69,-3.1 -6.67,-4.66 -11.95,-4.66 H 38.63 V 95.71 H 90 c 7.55,0 14.07,0.29 19.56,0.85 5.48,0.57 9.99,1.42 13.5,2.56 3.52,1.14 6.83,2.72 9.93,4.73 3.1,2.02 5.82,4.45 8.15,7.3 2.33,2.85 4.16,6.03 5.51,9.55 1.34,3.52 2.02,7.3 2.02,11.33 0,8.8 -2.79,16.35 -8.38,22.66 -5.59,6.31 -14.33,10.81 -26.23,13.5 l 29.03,40.36 c 3.42,4.66 6.44,8.49 9.08,11.48 2.64,3 5.28,5.38 7.92,7.14 2.64,1.76 5.43,3.05 8.38,3.88 2.95,0.83 6.44,1.45 10.48,1.86 z M 78.83,164.32 c 1.34,0 2.51,0.02 3.49,0.08 0.98,0.05 1.78,0.08 2.4,0.08 6.73,0 12.62,-0.77 17.7,-2.33 5.07,-1.55 9.31,-3.72 12.73,-6.52 3.42,-2.79 5.98,-6.08 7.68,-9.86 1.71,-3.78 2.56,-7.89 2.56,-12.34 0,-4.35 -0.72,-8.36 -2.17,-12.03 -1.45,-3.67 -3.52,-6.83 -6.21,-9.47 -2.69,-2.64 -5.9,-4.68 -9.62,-6.13 -3.72,-1.45 -7.81,-2.17 -12.26,-2.17 -4.24,0 -9.68,0.67 -16.3,2.02 z"
   id="path12" />
	<path
   class="st0"
   d="m 472.41,189.22 h -54.64 l -9.62,22.2 c -2.28,5.48 -3.42,9.57 -3.42,12.26 0,1.14 0.18,2.17 0.54,3.1 0.36,0.93 1.14,1.79 2.33,2.56 1.19,0.78 2.84,1.45 4.97,2.02 2.12,0.57 4.94,0.96 8.46,1.16 v 3.88 h -44.39 v -3.88 c 3.52,-0.52 6.36,-1.29 8.54,-2.33 2.17,-1.03 4.04,-2.45 5.59,-4.27 1.55,-1.81 2.97,-4.16 4.27,-7.06 1.29,-2.9 2.87,-6.47 4.74,-10.71 L 449.45,92.2 h 3.57 l 49.05,117.19 c 1.96,4.87 3.8,8.77 5.51,11.72 1.7,2.95 3.46,5.25 5.28,6.9 1.81,1.66 3.77,2.79 5.9,3.41 2.12,0.62 4.68,0.99 7.68,1.09 v 3.88 H 470.7 v -3.88 c 5.59,-0.21 9.39,-1.11 11.41,-2.72 2.01,-1.61 3.03,-3.54 3.03,-5.82 -0.1,-3 -1.5,-7.86 -4.19,-14.59 z m -2.95,-7.76 -23.9,-56.96 -24.53,56.96 z"
   id="path14" />
	<path
   class="st1"
   d="M 422.65,159.42"
   id="path16" />
	<path
   class="st0"
   d="m 326.6,93.6 c -1.95,-0.31 -3.41,-1.39 -5.25,-1.72 -2.52,-0.47 -8.27,0.4 -8.18,-3.68 0.04,-0.95 1.85,-1.92 2.23,-2.89 0.43,-1.17 0.56,-2.53 0.75,-3.76 0.38,-2.27 0.24,-4.2 -0.1,-6.47 -0.15,-1.05 -1.22,-4.89 -0.09,-5.69 1.51,-1.03 3.23,-2.07 4.52,-3.4 0.84,-0.88 -2.24,-1.09 -2.51,-1.13 -1.21,-0.12 -0.64,-0.83 -1.21,-1.6 -1.1,-1.53 -1.99,-1.01 -2.72,-3.08 -0.49,-1.44 -1.81,-3.9 -1.59,-5.46 -0.02,0.18 1.92,-3.48 1.89,-4.41 0.29,0.6 0.65,2.17 1.32,1.34 0.94,-1.12 1.55,-2.79 1.47,-4.26 -5.77,-24.15 -19.98,-34.88 -24.45,-25.01 -1.15,2.53 -9.05,24.45 -2.51,24.45 -1.77,0 1,7.14 1.41,7.86 0.07,0.1 1.51,1.9 1.41,1.99 -0.13,0.13 -1.36,9.25 -1.61,11.38 -2.86,1.01 1.2,8.96 1.89,9.96 2.08,2.99 5.47,5.02 2.62,8.76 -1.95,2.55 -4.32,3.73 -7.58,4.21 -2.16,0.32 -3.86,-0.52 -5.45,1.34 -0.69,0.8 -2.7,1.49 -3.67,1.52 -2.54,0.12 -2.79,-0.32 -5.07,0.91 -1.66,0.92 -1.81,1.69 -2.22,3.58 -0.8,3.73 -2.54,6.22 -3.99,9.67 -2.58,6.08 -5.95,12.3 -9.83,17.66 -1.37,1.89 -6.78,8.4 -11.15,13.72 l -20.3,-43.73 h -39.89 v 3.88 c 4.76,0 8.46,0.47 11.1,1.4 2.64,0.93 4.6,2.28 5.9,4.04 1.29,1.76 2.09,3.91 2.41,6.44 0.31,2.54 0.47,5.46 0.47,8.77 v 67.48 c -18.54,12.08 -52.26,34.13 -68.32,44.68 5.16,-3.18 10.45,-5.7 15.5,-8.77 12.98,-7.87 25.76,-16.05 38.74,-23.91 4.75,-2.86 9.41,-5.88 14.08,-8.87 v 21.59 c 0,4.66 -0.31,8.36 -0.93,11.1 -0.62,2.74 -1.55,4.81 -2.79,6.21 -1.24,1.4 -2.79,2.28 -4.66,2.64 -1.86,0.36 -4.04,0.54 -6.52,0.54 h -4.97 v 3.88 h 49.05 v -3.88 h -4.97 c -2.38,0 -4.5,-0.15 -6.36,-0.46 -1.86,-0.31 -3.44,-1.14 -4.74,-2.48 -1.29,-1.34 -2.28,-3.39 -2.95,-6.13 -0.67,-2.74 -1.01,-6.54 -1.01,-11.41 v -27.76 c 3.86,-2.82 8.48,-5.87 11.74,-4.3 0.75,0.36 4.71,1.48 4.71,2.35 -0.04,1.96 -1.13,3.36 1.41,3.34 1.04,0 4.77,0.11 5.39,-0.99 1.45,-2.55 -1,-3.23 1.64,-5.18 1.04,-0.77 1.7,-1.76 2.15,-2.84 l 27.45,59.74 h 0.25 L 334.3,95.66 c -2.44,-1.63 -4.93,-1.63 -7.7,-2.06 z m -95.12,66.19 c -0.85,0.81 -2.95,3.1 -1.18,4.17 0.32,0.19 -0.89,3.54 -1.08,3.89 -1.12,1.97 -1.85,1.38 -2.03,3.3 -0.21,2.27 -4.5,1.44 -3.66,4.66 0.43,1.72 -3.01,2.91 -4.42,3.8 -0.57,0.36 -1.73,1.11 -3.32,2.14 v -63.54 l 17.96,39.09 c -0.72,0.88 -1.46,1.73 -2.27,2.49 z m 21.82,-6.64 c 7.25,-8.35 24.97,-29.6 25.64,-29.2 1.57,0.92 2.84,8.6 3.18,10.48 0.53,2.83 1.32,5.81 1.8,8.5 0.36,1.96 -3.6,7.69 -4.41,9.87 -1.58,4.34 -2.93,8.76 -4.26,13.17 -1.21,4.08 -2.38,8.16 -3.52,12.27 -0.81,2.88 -0.02,3.1 2.86,4.54 3.36,1.68 7.72,4.5 9.94,8.67 l -6.67,14.63 z"
   id="path18" />
	<path
   class="st0"
   d="m 349.11,109.14 c 0.62,-2.74 1.55,-4.81 2.8,-6.21 1.24,-1.4 2.79,-2.3 4.66,-2.72 1.86,-0.41 4.09,-0.62 6.67,-0.62 h 4.81 v -3.88 h -19.37 l -20.52,45.39 v 71.33 c 0,4.66 -0.31,8.33 -0.93,11.02 -0.62,2.69 -1.58,4.73 -2.87,6.13 -1.29,1.4 -2.87,2.31 -4.73,2.72 -1.86,0.42 -4.04,0.62 -6.52,0.62 h -4.97 v 3.88 h 59.91 v -3.88 h -4.81 c -2.38,0 -4.5,-0.15 -6.36,-0.46 -1.86,-0.31 -3.44,-1.14 -4.73,-2.48 -1.29,-1.34 -2.28,-3.39 -2.95,-6.13 -0.67,-2.74 -1.01,-6.54 -1.01,-11.41 v -92.2 c -0.01,-4.66 0.3,-8.36 0.92,-11.1 z"
   id="path20" />
	<g
   id="g32">
		<line
   class="st2"
   x1="176.3"
   y1="260.62"
   x2="312.26999"
   y2="260.62"
   id="line22" />
		<line
   class="st3"
   x1="315.56"
   y1="260.62"
   x2="451.53"
   y2="260.62"
   id="line24" />
		<line
   class="st4"
   x1="37.040001"
   y1="260.62"
   x2="173.00999"
   y2="260.62"
   id="line26" />
		<rect
   x="454.54001"
   y="250.53"
   class="st5"
   width="81.239998"
   height="18.370001"
   id="rect28" />
		<text
   transform="translate(454.5401,266.213)"
   class="st0 st6 st7"
   id="text30">Brussels</text>
	</g>
	<g
   id="g38">
		<path
   class="st8"
   d="m 490.98,216.36 c 0,1.82 0,3.64 0,5.46 0,0.24 0,0.24 0.23,0.17 0.75,-0.21 1.51,-0.32 2.29,-0.27 1.87,0.13 3.39,0.88 4.37,2.54 0.07,0.11 0.12,0.23 0.19,0.35 0.03,0.05 0.03,0.14 0.09,0.14 0.08,0 0.08,-0.09 0.1,-0.15 0.16,-0.33 0.34,-0.65 0.56,-0.94 0.85,-1.13 1.98,-1.79 3.4,-1.92 1.38,-0.13 2.64,0.17 3.73,1.07 0.83,0.7 1.33,1.61 1.62,2.64 0.26,0.92 0.27,1.85 0.26,2.79 0,0.1 -0.03,0.13 -0.13,0.12 -0.05,0 -0.09,0 -0.14,0 -2.28,0 -4.55,0 -6.83,0 -0.17,0 -0.2,0.04 -0.19,0.21 0.11,1.32 1.15,2.34 2.45,2.58 1.2,0.22 2.32,-0.05 3.4,-0.58 0.09,-0.04 0.18,-0.09 0.27,-0.13 0.21,0.56 0.41,1.12 0.63,1.68 0.05,0.13 0.01,0.18 -0.09,0.25 -0.89,0.58 -1.87,0.92 -2.93,1.07 -1.04,0.15 -2.07,0.09 -3.07,-0.23 -1.52,-0.49 -2.53,-1.53 -3.12,-2.99 -0.02,-0.06 -0.05,-0.12 -0.07,-0.17 -0.06,-0.01 -0.06,0.03 -0.08,0.06 -0.8,1.57 -2.08,2.56 -3.75,3.06 -1.9,0.57 -3.79,0.48 -5.64,-0.24 -0.32,-0.13 -0.43,-0.29 -0.43,-0.65 0.01,-5.24 0.01,-10.47 0.01,-15.71 0,-0.07 0.01,-0.14 0.02,-0.22 0.96,0.01 1.9,0.01 2.85,0.01 z m 0,11.34 c 0,1.03 0,2.05 0,3.08 0,0.16 0.05,0.22 0.2,0.26 0.29,0.07 0.58,0.12 0.88,0.14 1.14,0.08 2.1,-0.29 2.81,-1.19 0.77,-0.96 0.99,-2.08 0.78,-3.27 -0.16,-0.92 -0.62,-1.68 -1.45,-2.17 -1.02,-0.6 -2.07,-0.54 -3.14,-0.11 -0.1,0.04 -0.08,0.12 -0.08,0.2 0,1.02 0,2.04 0,3.06 z m 11.66,-1.34 c 0.69,0 1.37,0 2.06,0 0.15,0 0.17,-0.04 0.16,-0.18 -0.05,-0.39 -0.14,-0.77 -0.3,-1.13 -0.63,-1.34 -2.19,-1.49 -3.11,-0.79 -0.61,0.46 -0.91,1.1 -0.97,1.84 -0.02,0.25 -0.01,0.25 0.25,0.25 0.63,0.01 1.27,0.01 1.91,0.01 z"
   id="path34" />
		<path
   class="st8"
   d="m 487.59,231.81 c 0,0.85 -0.65,1.53 -1.47,1.53 -0.85,0.01 -1.54,-0.66 -1.54,-1.49 0,-0.9 0.65,-1.6 1.5,-1.6 0.85,-0.01 1.51,0.68 1.51,1.56 z"
   id="path36" />
	</g>
</g>
<g
   id="g106"
   transform="matrix(6.8069976,0,0,6.8069976,-252.1312,-127.48008)">
	<path
   class="st0"
   d="m 54.45,285.72 h -6.27 v 18.74 h -3.62 v -18.74 h -6.25 v -3.07 h 16.14 z"
   id="path42" />
	<path
   class="st0"
   d="m 71.09,304.46 h -3.53 v -8.52 c 0,-3.08 -1.03,-4.62 -3.09,-4.62 -1.03,0 -1.91,0.45 -2.62,1.34 -0.71,0.89 -1.06,2.03 -1.06,3.42 v 8.38 H 57.25 V 281.4 h 3.54 v 10.07 h 0.06 c 1.18,-1.97 2.86,-2.95 5.05,-2.95 3.46,0 5.19,2.11 5.19,6.34 z"
   id="path44" />
	<path
   class="st0"
   d="M 88.56,297.63 H 77.94 c 0.04,1.44 0.48,2.55 1.33,3.33 0.85,0.78 2.01,1.17 3.49,1.17 1.66,0 3.19,-0.5 4.58,-1.49 v 2.84 c -1.42,0.89 -3.3,1.34 -5.63,1.34 -2.29,0 -4.09,-0.71 -5.39,-2.12 -1.3,-1.41 -1.95,-3.4 -1.95,-5.97 0,-2.42 0.72,-4.4 2.15,-5.92 1.43,-1.53 3.22,-2.29 5.35,-2.29 2.13,0 3.78,0.68 4.94,2.05 1.17,1.37 1.75,3.27 1.75,5.7 z m -3.41,-2.49 c -0.01,-1.27 -0.31,-2.25 -0.9,-2.96 -0.59,-0.71 -1.4,-1.06 -2.43,-1.06 -1.01,0 -1.87,0.37 -2.58,1.11 -0.71,0.74 -1.14,1.71 -1.3,2.91 z"
   id="path46" />
	<path
   class="st0"
   d="m 107.39,304.83 c -2.4,0 -4.32,-0.73 -5.76,-2.18 -1.44,-1.46 -2.15,-3.38 -2.15,-5.79 0,-2.62 0.75,-4.66 2.24,-6.13 1.5,-1.47 3.51,-2.21 6.05,-2.21 2.43,0 4.33,0.71 5.69,2.14 1.36,1.43 2.04,3.41 2.04,5.95 0,2.48 -0.73,4.47 -2.2,5.97 -1.47,1.5 -3.44,2.25 -5.91,2.25 z m 0.17,-13.5 c -1.38,0 -2.47,0.48 -3.27,1.44 -0.8,0.96 -1.2,2.29 -1.2,3.99 0,1.63 0.41,2.92 1.22,3.86 0.81,0.94 1.9,1.41 3.25,1.41 1.39,0 2.46,-0.46 3.2,-1.38 0.74,-0.92 1.12,-2.24 1.12,-3.94 0,-1.71 -0.37,-3.04 -1.12,-3.97 -0.75,-0.94 -1.81,-1.41 -3.2,-1.41 z"
   id="path48" />
	<path
   class="st0"
   d="m 132.96,304.46 h -3.53 v -8.78 c 0,-2.91 -1.03,-4.37 -3.09,-4.37 -1.07,0 -1.96,0.4 -2.66,1.21 -0.7,0.81 -1.05,1.82 -1.05,3.05 v 8.88 h -3.54 v -15.57 h 3.54 v 2.59 h 0.06 c 1.17,-1.97 2.85,-2.95 5.05,-2.95 1.69,0 2.99,0.55 3.88,1.65 0.89,1.1 1.34,2.69 1.34,4.77 z"
   id="path50" />
	<path
   class="st0"
   d="m 140.8,304.46 h -3.54 V 281.4 h 3.54 z"
   id="path52" />
	<path
   class="st0"
   d="m 158.89,288.89 -7.03,18.07 c -1.46,3.22 -3.51,4.84 -6.14,4.84 -0.74,0 -1.36,-0.07 -1.86,-0.2 v -2.94 c 0.56,0.18 1.06,0.27 1.52,0.27 1.32,0 2.3,-0.65 2.95,-1.95 l 1.05,-2.55 -6.19,-15.54 h 3.91 l 3.71,11.32 c 0.04,0.14 0.13,0.52 0.27,1.13 h 0.08 c 0.05,-0.23 0.14,-0.6 0.27,-1.1 l 3.89,-11.35 z"
   id="path54" />
	<path
   class="st0"
   d="m 170.19,304.46 v -21.81 h 6.92 c 2.11,0 3.78,0.46 5.01,1.38 1.23,0.92 1.85,2.12 1.85,3.6 0,1.24 -0.35,2.31 -1.05,3.22 -0.7,0.91 -1.67,1.56 -2.9,1.95 v 0.06 c 1.5,0.17 2.7,0.73 3.6,1.67 0.9,0.94 1.35,2.16 1.35,3.66 0,1.87 -0.74,3.38 -2.21,4.53 -1.47,1.16 -3.33,1.73 -5.57,1.73 h -7 z m 3.6,-18.91 v 6.21 h 2.34 c 1.26,0 2.24,-0.3 2.96,-0.89 0.71,-0.59 1.07,-1.43 1.07,-2.52 0,-1.87 -1.25,-2.8 -3.74,-2.8 z m 0,9.11 v 6.91 h 3.09 c 1.35,0 2.39,-0.31 3.13,-0.94 0.74,-0.62 1.1,-1.48 1.1,-2.58 0,-2.26 -1.57,-3.39 -4.7,-3.39 z"
   id="path56" />
	<path
   class="st0"
   d="m 201.79,297.63 h -10.62 c 0.04,1.44 0.48,2.55 1.33,3.33 0.85,0.78 2.01,1.17 3.49,1.17 1.66,0 3.19,-0.5 4.58,-1.49 v 2.84 c -1.42,0.89 -3.3,1.34 -5.63,1.34 -2.29,0 -4.09,-0.71 -5.39,-2.12 -1.3,-1.41 -1.95,-3.4 -1.95,-5.97 0,-2.42 0.72,-4.4 2.15,-5.92 1.43,-1.53 3.22,-2.29 5.35,-2.29 2.13,0 3.78,0.68 4.94,2.05 1.17,1.37 1.75,3.27 1.75,5.7 z m -3.4,-2.49 c -0.01,-1.27 -0.31,-2.25 -0.9,-2.96 -0.59,-0.71 -1.4,-1.06 -2.43,-1.06 -1.01,0 -1.87,0.37 -2.58,1.11 -0.71,0.74 -1.14,1.71 -1.3,2.91 z"
   id="path58" />
	<path
   class="st0"
   d="m 208.7,304.46 h -3.54 V 281.4 h 3.54 z"
   id="path60" />
	<path
   class="st0"
   d="m 227.47,303.21 c 0,5.72 -2.87,8.58 -8.62,8.58 -2.03,0 -3.8,-0.34 -5.31,-1.02 v -3.22 c 1.7,0.97 3.32,1.46 4.85,1.46 3.7,0 5.55,-1.82 5.55,-5.46 v -1.7 h -0.06 c -1.17,1.99 -2.92,2.98 -5.26,2.98 -1.9,0 -3.42,-0.69 -4.59,-2.08 -1.17,-1.39 -1.74,-3.24 -1.74,-5.57 0,-2.65 0.62,-4.75 1.87,-6.31 1.25,-1.56 2.96,-2.34 5.14,-2.34 2.06,0 3.58,0.84 4.58,2.53 h 0.06 v -2.16 h 3.53 z m -3.5,-5.88 v -2.02 c 0,-1.09 -0.36,-2.03 -1.09,-2.81 -0.73,-0.78 -1.63,-1.16 -2.71,-1.16 -1.34,0 -2.39,0.49 -3.14,1.48 -0.75,0.99 -1.13,2.37 -1.13,4.14 0,1.53 0.36,2.76 1.09,3.67 0.72,0.92 1.69,1.38 2.88,1.38 1.22,0 2.21,-0.44 2.97,-1.32 0.75,-0.87 1.13,-1.99 1.13,-3.36 z"
   id="path62" />
	<path
   class="st0"
   d="m 233.84,285.62 c -0.58,0 -1.07,-0.19 -1.48,-0.56 -0.41,-0.38 -0.62,-0.85 -0.62,-1.43 0,-0.58 0.21,-1.06 0.62,-1.45 0.41,-0.38 0.9,-0.58 1.48,-0.58 0.6,0 1.1,0.19 1.52,0.58 0.42,0.39 0.62,0.87 0.62,1.45 0,0.55 -0.21,1.02 -0.62,1.41 -0.42,0.38 -0.92,0.58 -1.52,0.58 z m 1.75,18.84 h -3.53 v -15.57 h 3.53 z"
   id="path64" />
	<path
   class="st0"
   d="m 252.15,304.46 h -3.42 v -2.43 h -0.06 c -1.07,1.87 -2.65,2.8 -4.73,2.8 -1.53,0 -2.73,-0.42 -3.6,-1.25 -0.87,-0.83 -1.3,-1.93 -1.3,-3.3 0,-2.94 1.69,-4.65 5.08,-5.14 l 4.62,-0.65 c 0,-2.22 -1.05,-3.33 -3.16,-3.33 -1.86,0 -3.53,0.64 -5.02,1.92 v -3.09 c 1.64,-0.97 3.54,-1.46 5.69,-1.46 3.93,0 5.9,1.94 5.9,5.81 z m -3.41,-7.65 -3.27,0.46 c -1.01,0.13 -1.78,0.38 -2.29,0.74 -0.51,0.36 -0.77,0.99 -0.77,1.89 0,0.66 0.24,1.2 0.71,1.62 0.47,0.42 1.1,0.63 1.89,0.63 1.07,0 1.96,-0.38 2.67,-1.13 0.7,-0.75 1.06,-1.71 1.06,-2.85 z"
   id="path66" />
	<path
   class="st0"
   d="m 270.32,304.46 h -3.53 v -8.78 c 0,-2.91 -1.03,-4.37 -3.09,-4.37 -1.07,0 -1.96,0.4 -2.66,1.21 -0.7,0.81 -1.05,1.82 -1.05,3.05 v 8.88 h -3.54 V 288.88 H 260 v 2.59 h 0.06 c 1.17,-1.97 2.85,-2.95 5.05,-2.95 1.69,0 2.99,0.55 3.88,1.65 0.89,1.1 1.34,2.69 1.34,4.77 v 9.52 z"
   id="path68" />
	<path
   class="st0"
   d="m 306.48,304.46 h -3.53 v -8.49 c 0,-1.63 -0.23,-2.81 -0.69,-3.54 -0.46,-0.73 -1.24,-1.09 -2.33,-1.09 -0.92,0 -1.71,0.46 -2.35,1.38 -0.64,0.92 -0.97,2.03 -0.97,3.32 v 8.43 h -3.54 v -8.78 c 0,-2.9 -1.02,-4.35 -3.07,-4.35 -0.95,0 -1.74,0.44 -2.35,1.31 -0.61,0.87 -0.92,2 -0.92,3.39 v 8.43 H 283.2 V 288.9 h 3.53 v 2.46 h 0.06 c 1.13,-1.89 2.76,-2.83 4.91,-2.83 1.07,0 2.01,0.3 2.82,0.89 0.81,0.59 1.36,1.37 1.65,2.33 1.16,-2.15 2.88,-3.22 5.17,-3.22 3.43,0 5.14,2.11 5.14,6.34 z"
   id="path70" />
	<path
   class="st0"
   d="m 312.56,285.62 c -0.58,0 -1.07,-0.19 -1.48,-0.56 -0.41,-0.38 -0.62,-0.85 -0.62,-1.43 0,-0.58 0.21,-1.06 0.62,-1.45 0.41,-0.38 0.91,-0.58 1.48,-0.58 0.6,0 1.1,0.19 1.52,0.58 0.42,0.39 0.62,0.87 0.62,1.45 0,0.55 -0.21,1.02 -0.62,1.41 -0.42,0.38 -0.92,0.58 -1.52,0.58 z m 1.75,18.84 h -3.53 v -15.57 h 3.53 z"
   id="path72" />
	<path
   class="st0"
   d="m 322.46,304.46 h -3.54 V 281.4 h 3.54 z"
   id="path74" />
	<path
   class="st0"
   d="m 328.83,285.62 c -0.58,0 -1.07,-0.19 -1.48,-0.56 -0.41,-0.38 -0.62,-0.85 -0.62,-1.43 0,-0.58 0.21,-1.06 0.62,-1.45 0.41,-0.38 0.91,-0.58 1.48,-0.58 0.6,0 1.1,0.19 1.52,0.58 0.42,0.39 0.62,0.87 0.62,1.45 0,0.55 -0.21,1.02 -0.62,1.41 -0.41,0.38 -0.92,0.58 -1.52,0.58 z m 1.75,18.84 h -3.53 v -15.57 h 3.53 z"
   id="path76" />
	<path
   class="st0"
   d="m 343.4,304.29 c -0.69,0.34 -1.6,0.52 -2.72,0.52 -3.02,0 -4.53,-1.45 -4.53,-4.35 v -8.81 h -2.6 v -2.77 h 2.6 v -3.6 l 3.53,-1 v 4.61 h 3.73 v 2.77 h -3.73 v 7.79 c 0,0.92 0.17,1.58 0.5,1.98 0.33,0.4 0.89,0.59 1.67,0.59 0.6,0 1.12,-0.17 1.55,-0.52 z"
   id="path78" />
	<path
   class="st0"
   d="m 358.4,304.46 h -3.42 v -2.43 h -0.06 c -1.07,1.87 -2.65,2.8 -4.73,2.8 -1.53,0 -2.73,-0.42 -3.6,-1.25 -0.87,-0.83 -1.3,-1.93 -1.3,-3.3 0,-2.94 1.69,-4.65 5.08,-5.14 l 4.62,-0.65 c 0,-2.22 -1.05,-3.33 -3.16,-3.33 -1.86,0 -3.53,0.64 -5.02,1.92 v -3.09 c 1.64,-0.97 3.54,-1.46 5.69,-1.46 3.93,0 5.9,1.94 5.9,5.81 z m -3.41,-7.65 -3.27,0.46 c -1.01,0.13 -1.78,0.38 -2.29,0.74 -0.51,0.36 -0.77,0.99 -0.77,1.89 0,0.66 0.24,1.2 0.71,1.62 0.47,0.42 1.1,0.63 1.89,0.63 1.07,0 1.96,-0.38 2.67,-1.13 0.7,-0.75 1.06,-1.71 1.06,-2.85 z"
   id="path80" />
	<path
   class="st0"
   d="m 371.74,292.25 c -0.43,-0.33 -1.04,-0.5 -1.84,-0.5 -1.04,0 -1.92,0.47 -2.62,1.41 -0.7,0.94 -1.05,2.23 -1.05,3.85 v 7.45 h -3.53 v -15.57 h 3.53 v 3.21 h 0.06 c 0.34,-1.09 0.88,-1.95 1.59,-2.56 0.71,-0.61 1.51,-0.92 2.4,-0.92 0.64,0 1.12,0.1 1.46,0.29 z"
   id="path82" />
	<path
   class="st0"
   d="m 388.97,288.89 -7.03,18.07 c -1.46,3.22 -3.51,4.84 -6.14,4.84 -0.74,0 -1.36,-0.07 -1.86,-0.2 v -2.94 c 0.56,0.18 1.06,0.27 1.52,0.27 1.32,0 2.3,-0.65 2.95,-1.95 l 1.05,-2.55 -6.19,-15.54 h 3.91 l 3.71,11.32 c 0.04,0.14 0.13,0.52 0.27,1.13 h 0.08 c 0.05,-0.23 0.14,-0.6 0.27,-1.1 l 3.89,-11.35 z"
   id="path84" />
	<path
   class="st0"
   d="m 413.46,304.46 h -3.53 V 302 h -0.06 c -1.02,1.89 -2.62,2.83 -4.78,2.83 -3.68,0 -5.52,-2.21 -5.52,-6.63 v -9.31 h 3.53 v 8.94 c 0,2.8 1.08,4.2 3.24,4.2 1.04,0 1.9,-0.38 2.58,-1.16 0.67,-0.77 1.01,-1.78 1.01,-3.03 v -8.96 h 3.53 z"
   id="path86" />
	<path
   class="st0"
   d="m 431.92,304.46 h -3.53 v -8.78 c 0,-2.91 -1.03,-4.37 -3.09,-4.37 -1.08,0 -1.96,0.4 -2.66,1.21 -0.7,0.81 -1.05,1.82 -1.05,3.05 v 8.88 h -3.54 v -15.57 h 3.54 v 2.59 h 0.06 c 1.17,-1.97 2.85,-2.95 5.05,-2.95 1.69,0 2.99,0.55 3.88,1.65 0.89,1.1 1.34,2.69 1.34,4.77 z"
   id="path88" />
	<path
   class="st0"
   d="m 438,285.62 c -0.58,0 -1.07,-0.19 -1.48,-0.56 -0.41,-0.38 -0.62,-0.85 -0.62,-1.43 0,-0.58 0.21,-1.06 0.62,-1.45 0.41,-0.38 0.91,-0.58 1.48,-0.58 0.6,0 1.1,0.19 1.52,0.58 0.42,0.39 0.62,0.87 0.62,1.45 0,0.55 -0.21,1.02 -0.62,1.41 -0.41,0.38 -0.92,0.58 -1.52,0.58 z m 1.75,18.84 h -3.53 v -15.57 h 3.53 z"
   id="path90" />
	<path
   class="st0"
   d="m 457.78,288.89 -6.02,15.57 h -3.82 l -5.73,-15.57 h 3.83 l 3.45,10.89 c 0.26,0.8 0.43,1.5 0.49,2.1 h 0.04 c 0.09,-0.75 0.23,-1.43 0.43,-2.04 l 3.62,-10.95 z"
   id="path92" />
	<path
   class="st0"
   d="m 473.11,297.63 h -10.62 c 0.04,1.44 0.48,2.55 1.33,3.33 0.85,0.78 2.01,1.17 3.49,1.17 1.66,0 3.19,-0.5 4.58,-1.49 v 2.84 c -1.42,0.89 -3.29,1.34 -5.63,1.34 -2.29,0 -4.09,-0.71 -5.39,-2.12 -1.3,-1.41 -1.95,-3.4 -1.95,-5.97 0,-2.42 0.72,-4.4 2.15,-5.92 1.43,-1.53 3.22,-2.29 5.35,-2.29 2.13,0 3.78,0.68 4.94,2.05 1.16,1.37 1.75,3.27 1.75,5.7 z m -3.41,-2.49 c -0.01,-1.27 -0.31,-2.25 -0.9,-2.96 -0.59,-0.71 -1.4,-1.06 -2.43,-1.06 -1.01,0 -1.87,0.37 -2.58,1.11 -0.7,0.74 -1.14,1.71 -1.3,2.91 z"
   id="path94" />
	<path
   class="st0"
   d="m 485.5,292.25 c -0.43,-0.33 -1.04,-0.5 -1.84,-0.5 -1.04,0 -1.92,0.47 -2.62,1.41 -0.7,0.94 -1.05,2.23 -1.05,3.85 v 7.45 h -3.53 V 288.89 H 480 v 3.21 h 0.06 c 0.34,-1.09 0.88,-1.95 1.59,-2.56 0.71,-0.61 1.51,-0.92 2.4,-0.92 0.64,0 1.12,0.1 1.46,0.29 v 3.34 z"
   id="path96" />
	<path
   class="st0"
   d="m 487.22,303.97 v -3.27 c 1.32,1 2.77,1.51 4.37,1.51 2.13,0 3.19,-0.63 3.19,-1.89 0,-0.35 -0.09,-0.66 -0.27,-0.91 -0.18,-0.25 -0.43,-0.47 -0.74,-0.66 -0.31,-0.19 -0.67,-0.37 -1.1,-0.52 -0.43,-0.15 -0.89,-0.32 -1.41,-0.52 -0.64,-0.25 -1.21,-0.52 -1.73,-0.81 -0.51,-0.28 -0.94,-0.61 -1.28,-0.97 -0.34,-0.36 -0.6,-0.77 -0.77,-1.22 -0.17,-0.46 -0.26,-0.99 -0.26,-1.6 0,-0.75 0.18,-1.41 0.53,-1.98 0.35,-0.57 0.83,-1.05 1.43,-1.45 0.6,-0.39 1.28,-0.68 2.04,-0.88 0.76,-0.2 1.55,-0.3 2.36,-0.3 1.44,0 2.73,0.22 3.86,0.65 v 3.09 c -1.09,-0.75 -2.35,-1.13 -3.77,-1.13 -0.45,0 -0.85,0.05 -1.21,0.14 -0.36,0.09 -0.67,0.22 -0.92,0.38 -0.25,0.16 -0.45,0.36 -0.59,0.58 -0.14,0.23 -0.21,0.48 -0.21,0.75 0,0.33 0.07,0.62 0.21,0.85 0.14,0.23 0.35,0.44 0.63,0.62 0.28,0.18 0.61,0.34 1,0.49 0.39,0.15 0.84,0.31 1.35,0.48 0.67,0.27 1.27,0.55 1.8,0.84 0.53,0.28 0.99,0.61 1.36,0.97 0.38,0.36 0.66,0.78 0.87,1.25 0.2,0.47 0.3,1.03 0.3,1.68 0,0.79 -0.18,1.48 -0.55,2.07 -0.37,0.59 -0.85,1.07 -1.46,1.46 -0.61,0.38 -1.31,0.67 -2.11,0.86 -0.8,0.19 -1.64,0.28 -2.52,0.28 -1.68,0.02 -3.15,-0.27 -4.4,-0.84 z"
   id="path98" />
	<path
   class="st0"
   d="m 503.4,285.62 c -0.58,0 -1.07,-0.19 -1.48,-0.56 -0.41,-0.38 -0.62,-0.85 -0.62,-1.43 0,-0.58 0.21,-1.06 0.62,-1.45 0.41,-0.38 0.91,-0.58 1.48,-0.58 0.6,0 1.1,0.19 1.52,0.58 0.42,0.39 0.62,0.87 0.62,1.45 0,0.55 -0.21,1.02 -0.62,1.41 -0.41,0.38 -0.92,0.58 -1.52,0.58 z m 1.75,18.84 h -3.53 v -15.57 h 3.53 z"
   id="path100" />
	<path
   class="st0"
   d="m 517.97,304.29 c -0.69,0.34 -1.6,0.52 -2.72,0.52 -3.02,0 -4.53,-1.45 -4.53,-4.35 v -8.81 h -2.6 v -2.77 h 2.6 v -3.6 l 3.53,-1 v 4.61 h 3.73 v 2.77 h -3.73 v 7.79 c 0,0.92 0.17,1.58 0.5,1.98 0.33,0.4 0.89,0.59 1.67,0.59 0.6,0 1.12,-0.17 1.55,-0.52 z"
   id="path102" />
	<path
   class="st0"
   d="m 534.51,288.89 -7.03,18.07 c -1.46,3.22 -3.51,4.84 -6.14,4.84 -0.74,0 -1.36,-0.07 -1.86,-0.2 v -2.94 c 0.56,0.18 1.06,0.27 1.52,0.27 1.32,0 2.3,-0.65 2.95,-1.95 l 1.05,-2.55 -6.19,-15.54 h 3.91 l 3.71,11.32 c 0.04,0.14 0.13,0.52 0.27,1.13 h 0.08 c 0.05,-0.23 0.14,-0.6 0.27,-1.1 l 3.89,-11.35 z"
   id="path104" />
</g>
</svg>
